<?xml version="1.0" standalone="no"?>
<!DOCTYPE svg PUBLIC "-//W3C//DTD SVG 20010904//EN"
 "http://www.w3.org/TR/2001/REC-SVG-20010904/DTD/svg10.dtd">
<svg version="1.0" xmlns="http://www.w3.org/2000/svg"
 width="509.000000pt" height="509.000000pt" viewBox="0 0 509.000000 509.000000"
 preserveAspectRatio="xMidYMid meet">
<metadata>
Created by potrace 1.14, written by Peter Selinger 2001-2017
</metadata>
<g transform="translate(0.000000,509.000000) scale(0.100000,-0.100000)"
fill="#000000" stroke="none">
<path d="M649 5068 c-2 -55 -1 -441 1 -517 2 -46 6 -102 11 -125 4 -22 10 -59
13 -81 11 -65 74 -244 118 -330 71 -141 154 -252 274 -367 128 -124 233 -184
649 -376 338 -156 937 -434 1060 -492 61 -29 169 -79 240 -112 225 -103 256
-119 250 -129 -4 -5 -11 -9 -16 -9 -6 0 -58 -22 -116 -50 -58 -27 -107 -50
-108 -50 -2 0 -52 -23 -112 -51 -59 -28 -220 -103 -358 -166 -137 -63 -297
-137 -354 -164 -57 -27 -105 -49 -106 -49 -2 0 -47 -21 -102 -46 -54 -25 -125
-59 -158 -74 -33 -15 -125 -58 -205 -95 -80 -37 -179 -83 -220 -102 -266 -124
-497 -352 -625 -618 -113 -234 -136 -358 -139 -750 -1 -154 0 -285 2 -292 4
-14 12 -12 152 54 174 83 240 113 360 168 115 52 163 75 359 166 57 27 105 49
107 49 1 0 49 22 106 49 57 27 130 61 163 76 135 62 184 84 260 120 44 20 134
62 200 92 66 31 167 78 224 104 57 27 105 49 106 49 2 0 60 27 130 60 70 33
128 60 130 60 1 0 52 23 111 51 132 62 206 96 434 201 96 44 226 105 288 134
62 30 114 54 116 54 2 0 50 22 107 49 57 26 129 60 159 73 30 14 89 41 130 61
41 19 102 47 135 62 33 15 94 43 135 62 41 19 93 43 116 53 l41 19 0 660 c0
363 -3 658 -8 656 -4 -3 -9 -1 -11 5 -2 8 -153 80 -675 321 -93 43 -168 77
-378 173 -104 48 -208 96 -230 106 -22 10 -74 34 -115 53 -41 19 -104 48 -140
65 -36 16 -94 43 -130 60 -195 90 -335 154 -415 192 -100 47 -141 66 -395 182
-96 44 -231 107 -299 139 -68 33 -125 59 -126 59 -3 0 -212 96 -360 165 -185
86 -258 120 -490 227 -143 66 -268 124 -277 129 -15 8 -18 5 -19 -13z"/>
<path d="M388 3397 c37 -65 130 -234 169 -307 59 -110 107 -197 148 -270 23
-41 62 -111 85 -155 24 -44 47 -84 51 -90 5 -5 9 -16 9 -25 0 -8 -110 -213
-244 -455 -135 -242 -243 -441 -241 -443 1 -2 430 189 951 424 522 234 969
435 994 446 l45 20 -85 40 c-47 22 -206 96 -355 163 -148 68 -295 134 -325
148 -30 14 -271 123 -535 242 -264 119 -502 228 -530 240 -27 13 -76 35 -108
49 l-58 25 29 -52z"/>
</g>
</svg>
